<?xml version="1.0" encoding="iso-8859-1"?>
<!-- Generator: Adobe Illustrator 19.0.0, SVG Export Plug-In . SVG Version: 6.00 Build 0)  -->
<svg version="1.1" id="Capa_1" xmlns="http://www.w3.org/2000/svg" xmlns:xlink="http://www.w3.org/1999/xlink" x="0px" y="0px"
	 viewBox="0 0 512 512" style="enable-background:new 0 0 512 512;" xml:space="preserve">
<g>
	<rect x="350.815" y="388.741" style="fill:#A4C2F7;" width="113.778" height="94.815"/>
	<rect x="350.815" y="388.741" style="fill:#E3E7F2;" width="85.333" height="94.815"/>
	<rect x="199.111" y="208.593" style="fill:#A4C2F7;" width="113.778" height="94.815"/>
	<rect x="199.111" y="208.593" style="fill:#E3E7F2;" width="85.333" height="94.815"/>
	<rect x="85.333" y="28.444" style="fill:#A4C2F7;" width="75.852" height="94.815"/>
	<rect x="47.407" y="28.444" style="fill:#FFFFFF;" width="75.852" height="94.815"/>
	<rect x="75.852" y="28.444" style="fill:#E3E7F2;" width="56.889" height="94.815"/>
	<g>
		<path style="fill:#428DFF;" d="M502.519,85.333H161.185c-5.236,0-9.481-4.245-9.481-9.481s4.245-9.481,9.481-9.481h341.333
			c5.236,0,9.481,4.245,9.481,9.481S507.755,85.333,502.519,85.333z"/>
		<path style="fill:#428DFF;" d="M161.185,132.741H47.407c-2.515,0.001-4.928-0.997-6.706-2.775
			c-1.778-1.778-2.777-4.191-2.775-6.706V28.444c-0.001-2.515,0.997-4.928,2.775-6.706c1.778-1.778,4.191-2.777,6.706-2.775h113.778
			c2.515-0.001,4.928,0.997,6.706,2.775c1.778,1.778,2.777,4.191,2.775,6.706v94.815c0.001,2.515-0.997,4.928-2.775,6.706
			C166.113,131.744,163.7,132.742,161.185,132.741L161.185,132.741z M56.889,113.778h94.815V37.926H56.889V113.778z"/>
		<path style="fill:#428DFF;" d="M47.407,85.333H9.481C4.245,85.333,0,81.088,0,75.852s4.245-9.481,9.481-9.481h37.926
			c5.236,0,9.481,4.245,9.481,9.481S52.644,85.333,47.407,85.333z"/>
		<path style="fill:#428DFF;" d="M502.519,265.481h-189.63c-5.236,0-9.481-4.245-9.481-9.481c0-5.236,4.245-9.481,9.481-9.481
			h189.63c5.236,0,9.481,4.245,9.481,9.481C512,261.236,507.755,265.481,502.519,265.481z"/>
		<path style="fill:#428DFF;" d="M312.889,312.889H199.111c-2.515,0.001-4.928-0.997-6.706-2.775
			c-1.778-1.778-2.777-4.191-2.775-6.706v-94.815c-0.001-2.515,0.997-4.928,2.775-6.706c1.778-1.778,4.191-2.777,6.706-2.775
			h113.778c2.515-0.001,4.928,0.997,6.706,2.775c1.778,1.778,2.777,4.191,2.775,6.706v94.815c0.001,2.515-0.997,4.928-2.775,6.706
			C317.816,311.892,315.404,312.89,312.889,312.889L312.889,312.889z M208.593,293.926h94.815v-75.852h-94.815V293.926z"/>
		<path style="fill:#428DFF;" d="M199.111,265.481H9.481C4.245,265.481,0,261.236,0,256c0-5.236,4.245-9.481,9.481-9.481h189.63
			c5.236,0,9.481,4.245,9.481,9.481C208.593,261.236,204.348,265.481,199.111,265.481z"/>
		<path style="fill:#428DFF;" d="M350.815,445.63H9.481c-5.236,0-9.481-4.245-9.481-9.481c0-5.236,4.245-9.482,9.481-9.482h341.333
			c5.236,0,9.481,4.245,9.481,9.482C360.296,441.385,356.051,445.63,350.815,445.63z"/>
		<path style="fill:#428DFF;" d="M464.593,493.037H350.815c-2.515,0.001-4.928-0.997-6.706-2.775
			c-1.778-1.778-2.777-4.191-2.775-6.706v-94.815c-0.001-2.515,0.997-4.928,2.775-6.706c1.778-1.778,4.191-2.777,6.706-2.775
			h113.778c2.515-0.001,4.928,0.997,6.706,2.775c1.778,1.778,2.777,4.191,2.775,6.706v94.815c0.001,2.515-0.997,4.928-2.775,6.706
			C469.52,492.04,467.108,493.038,464.593,493.037L464.593,493.037z M360.296,474.074h94.815v-75.852h-94.815V474.074z"/>
		<path style="fill:#428DFF;" d="M502.519,445.63h-37.926c-5.236,0-9.481-4.245-9.481-9.481c0-5.236,4.245-9.482,9.481-9.482h37.926
			c5.236,0,9.481,4.245,9.481,9.482C512,441.385,507.755,445.63,502.519,445.63z"/>
	</g>
</g>
<g>
</g>
<g>
</g>
<g>
</g>
<g>
</g>
<g>
</g>
<g>
</g>
<g>
</g>
<g>
</g>
<g>
</g>
<g>
</g>
<g>
</g>
<g>
</g>
<g>
</g>
<g>
</g>
<g>
</g>
</svg>
